<?xml version="1.0" encoding="UTF-8"?>
<svg width="29px" height="20px" viewBox="0 0 29 20" version="1.1" xmlns="http://www.w3.org/2000/svg" xmlns:xlink="http://www.w3.org/1999/xlink">
    <!-- Generator: Sketch 63.1 (92452) - https://sketch.com -->
    <title>Tufted-Cushion</title>
    <desc>Created with Sketch.</desc>
    <g id="PDP-HiFi" stroke="none" stroke-width="1" fill="none" fill-rule="evenodd">
        <g id="Desktop-PDP-Configurator" transform="translate(-1283.000000, -480.000000)">
            <rect fill="#FFFFFF" x="0" y="0" width="1440" height="842"></rect>
            <g id="REVERSIBLE-CUSHIONS" transform="translate(1267.000000, 446.000000)">
                <g id="Tufted" transform="translate(16.500000, 34.500000)">
                    <path d="M24.8888889,19 L3.11111111,19 C1.39844444,19 0,17.6004256 0,15.8898347 L0,3.11016533 C0,1.3995744 1.39844444,0 3.11111111,0 L24.8888889,0 C26.6,0 28,1.3995744 28,3.11016533 L28,15.8898347 C28,17.6004256 26.6,19 24.8888889,19 Z" id="Tufted-Cushion-Outline" stroke="#B2B2B4" fill="#FFFFFF" stroke-linecap="round"></path>
                    <rect id="Rectangle" fill="#D1D0D0" x="2" y="2" width="24" height="15" rx="2"></rect>
                    <path d="M10.2694005,5.72706258 C10.6229539,6.08061597 10.5636255,6.49349774 10.0914154,6.96570788 L9.563,7.494 L10.1854965,8.11698941 C10.581167,8.53995717 10.609135,8.9213083 10.2694005,9.26104279 C9.92966603,9.60077728 9.54831491,9.57280926 9.12534715,9.17713873 L8.502,8.554 L7.8794737,9.17713873 C7.45650594,9.57280926 7.07515481,9.60077728 6.73542032,9.26104279 C6.39568583,8.9213083 6.42365385,8.53995717 6.81932438,8.11698941 L7.442,7.494 L6.91340545,6.96570788 C6.44119531,6.49349774 6.38186693,6.08061597 6.73542032,5.72706258 C7.08897371,5.37350919 7.50185548,5.43283757 7.97406562,5.90504771 L8.502,6.433 L9.03075522,5.90504771 C9.50296537,5.43283757 9.91584713,5.37350919 10.2694005,5.72706258 Z" id="Combined-Shape---Left" fill="#FFFFFF"></path>
                    <path d="M21.2694005,5.72706258 C21.6229539,6.08061597 21.5636255,6.49349774 21.0914154,6.96570788 L20.563,7.494 L21.1854965,8.11698941 C21.581167,8.53995717 21.609135,8.9213083 21.2694005,9.26104279 C20.929666,9.60077728 20.5483149,9.57280926 20.1253471,9.17713873 L19.502,8.554 L18.8794737,9.17713873 C18.4565059,9.57280926 18.0751548,9.60077728 17.7354203,9.26104279 C17.3956858,8.9213083 17.4236539,8.53995717 17.8193244,8.11698941 L18.442,7.494 L17.9134055,6.96570788 C17.4411953,6.49349774 17.3818669,6.08061597 17.7354203,5.72706258 C18.0889737,5.37350919 18.5018555,5.43283757 18.9740656,5.90504771 L19.502,6.433 L20.0307552,5.90504771 C20.5029654,5.43283757 20.9158471,5.37350919 21.2694005,5.72706258 Z" id="Combined-Shape---Right" fill="#FFFFFF"></path>
                </g>
            </g>
        </g>
    </g>
</svg>